<svg width="512" height="512" viewBox="0 0 512 512" fill="none" xmlns="http://www.w3.org/2000/svg">
<g clip-path="url(#clip0)">
<path d="M300.799 460.457C314.975 460.457 325.824 453.659 333.346 440.061C341.157 426.464 345.062 409.685 345.062 389.723C345.062 369.761 337.396 349.51 322.063 328.969C300.076 354.139 269.844 366.723 231.367 366.723C192.89 366.723 162.224 360.214 139.369 347.195C116.803 334.177 105.52 313.636 105.52 285.574C105.52 266.191 110.728 250.569 121.143 238.707C131.558 226.846 149.06 218.167 173.651 212.67C148.192 189.526 135.463 164.357 135.463 137.162C135.463 109.679 145.01 88.9936 164.104 75.1071C183.487 60.9313 207.499 53.8434 236.14 53.8434C264.781 53.8434 286.189 59.0509 300.365 69.4657C314.83 79.8806 322.063 93.9117 322.063 111.559C322.063 142.225 298.774 165.659 252.196 181.859C257.982 185.62 268.542 192.274 283.875 201.821C315.987 222.651 338.698 239.431 352.006 252.16C356.345 231.619 358.804 210.5 359.383 188.803H325.1V180.124H400.608V188.803H370.232C369.653 215.997 366.905 240.443 361.986 262.141C374.426 276.027 383.829 289.335 390.193 302.064C396.558 314.794 399.74 330.85 399.74 350.233C399.74 381.478 388.747 409.395 366.76 433.986C344.773 458.577 319.748 470.872 291.686 470.872C272.881 470.872 258.272 466.966 247.857 459.155C237.442 451.344 232.235 441.363 232.235 429.213C232.235 417.062 235.562 407.515 242.216 400.572C249.159 393.918 257.838 390.591 268.253 390.591C291.397 390.591 302.969 401.006 302.969 421.835C302.969 426.175 302.101 431.382 300.365 437.458H285.177C279.969 452.791 285.177 460.457 300.799 460.457ZM241.782 355.441C272.448 355.441 296.749 343.579 314.686 319.856C301.378 305.97 282.718 290.926 258.706 274.725C217.336 247.531 191.009 229.016 179.726 219.179C175.387 228.437 173.217 247.242 173.217 275.593C173.217 303.945 178.858 324.341 190.141 336.781C201.424 349.221 218.637 355.441 241.782 355.441ZM233.97 62.9564C222.977 62.9564 213.575 66.4281 205.763 73.3713C197.952 80.0253 194.047 90.7294 194.047 105.484C194.047 120.238 197.518 132.389 204.462 141.936C211.405 151.483 224.713 163.055 244.385 176.652C256.536 170.287 264.058 162.621 266.951 153.653C270.133 144.684 271.724 131.521 271.724 114.163C271.724 80.0252 259.14 62.9564 233.97 62.9564Z" fill="#12C05B"/>
</g>
<defs>
<clipPath id="clip0">
<rect width="512" height="512" fill="white"/>
</clipPath>
</defs>
</svg>
